<svg width="52" height="52" viewBox="0 0 52 52" fill="none" xmlns="http://www.w3.org/2000/svg">
<path d="M25.272 0.414354C25.7225 0.157943 26.2775 0.157943 26.728 0.414354L48.0949 12.5761C48.5454 12.8325 48.8229 13.3063 48.8229 13.8191V38.1426C48.8229 38.6553 48.5454 39.1292 48.0949 39.3857L26.728 51.5473C26.2775 51.8038 25.7225 51.8038 25.272 51.5473L3.90509 39.3857C3.45461 39.1292 3.17709 38.6553 3.17709 38.1425V13.8191C3.17709 13.3063 3.45461 12.8325 3.90509 12.576L25.272 0.414354Z" fill="#DC143C"/>
<path d="M26 41.3397C33.0763 41.3397 38.8128 35.6844 38.8128 28.7081C38.8128 21.7319 33.0763 15.7059 26 15.7059C18.9237 15.7059 13.1872 21.7319 13.1872 28.7081C13.1872 35.6844 18.9237 41.3397 26 41.3397Z" fill="#DC143C" stroke="white" stroke-width="2"/>
<path d="M33.28 9.9043H18.72V21.5311H33.28V9.9043Z" fill="#DC143C"/>
<path fill-rule="evenodd" clip-rule="evenodd" d="M19.5936 10.4785L23.3792 14.1929V40.7655H21.3408C20.3759 40.7655 19.5936 39.9943 19.5936 39.043V10.4785Z" fill="white"/>
<path fill-rule="evenodd" clip-rule="evenodd" d="M28.6208 24.8326L32.4064 28.547V39.0431C32.4064 39.9943 31.6241 40.7656 30.6592 40.7656H28.6208V24.8326Z" fill="white"/>
<path fill-rule="evenodd" clip-rule="evenodd" d="M24.1072 17.6555L27.8928 21.3699V41.3397H24.1072V17.6555Z" fill="white"/>
</svg>
